/vscmnt/brussel_pixiu_data/_data_brussel/112/vsc11236/PredSimResults/SUBJ10opt3D/trackIG/worker_14.mot
version=1
nRows=5
nColumns=50
inDegrees=yes
endheader
                time	         pelvis_tilt	         pelvis_list	     pelvis_rotation	           pelvis_tx	           pelvis_ty	           pelvis_tz	       hip_flexion_r	     hip_adduction_r	      hip_rotation_r	        knee_angle_r	       ankle_angle_r	         mtp_angle_r	       hip_flexion_l	     hip_adduction_l	      hip_rotation_l	        knee_angle_l	       ankle_angle_l	         mtp_angle_l	    lumbar_extension	      lumbar_bending	     lumbar_rotation	 ercspn_r/activation	 intobl_r/activation	 extobl_r/activation	    abd_r/activation	    add_r/activation	hamstrings_r/activation	bifemsh_r/activation	glut_max_r/activation	iliopsoas_r/activation	rect_fem_r/activation	  vasti_r/activation	gastroc_r/activation	 soleus_r/activation	tib_ant_r/activation	 ercspn_l/activation	 intobl_l/activation	 extobl_l/activation	    abd_l/activation	    add_l/activation	hamstrings_l/activation	bifemsh_l/activation	glut_max_l/activation	iliopsoas_l/activation	rect_fem_l/activation	  vasti_l/activation	gastroc_l/activation	 soleus_l/activation	tib_ant_l/activation	
          1.12654221	        -12.28809170	         -2.46662401	         13.93487501	          2.14043020	          0.78492471	         -0.01280412	         45.39839900	         -5.36044591	         -5.44171843	        -10.01569340	          0.09160089	          0.25705725	         -1.53204739	         -1.78810312	         10.54181119	        -29.37739904	          8.34630146	         39.25393583	         -7.08653482	         -0.77265659	         -2.21624331	          0.15203032	          0.09932511	          0.00999999	          0.00999999	          0.09477828	          0.06236615	          0.30005640	          0.08192511	          0.10371277	          0.01720470	          0.00999999	          0.06945481	          0.00999999	          0.32393401	          0.11126091	          0.00999999	          0.00999999	          0.04274673	          0.12722608	          0.06112520	          0.41324076	          0.01662519	          0.06809291	          0.01187757	          0.06740847	          0.16357219	          0.28613031	          0.01705599	
          1.13780763	        -12.18311680	         -2.48213927	         14.15899707	          2.16725112	          0.78508861	         -0.01233819	         45.37703727	         -5.27690675	         -6.08320554	        -13.40066837	         -0.15510910	          0.25201417	         -3.02997720	         -2.31772062	         10.07503402	        -29.44776791	          5.33757853	         39.34080901	         -6.72956188	         -0.44037560	         -2.35172455	          0.12799783	          0.08362410	          0.00999999	          0.00999999	          0.10709362	          0.06445896	          0.25262439	          0.18415051	          0.08731817	          0.01448503	          0.00999999	          0.05847560	          0.01187756	          0.36814856	          0.11202299	          0.00999999	          0.00999999	          0.03598946	          0.24231948	          0.05146272	          0.34791692	          0.01399713	          0.17726547	          0.01000000	          0.05675275	          0.14201853	          0.24089970	          0.01435983	
          1.14907305	        -12.07297012	         -2.47015722	         14.32178950	          2.19394845	          0.78513495	         -0.01182943	         45.31040455	         -5.19588690	         -6.56784093	        -16.82371411	         -0.48447197	          0.23194973	         -4.13029915	         -2.74276983	          9.62189749	        -30.19109430	          2.37385640	         38.63522990	         -6.41335154	         -0.11907241	         -2.44681837	          0.11651856	          0.07040505	          0.00999999	          0.05074458	          0.14948273	          0.06540489	          0.21269029	          0.27137399	          0.07351518	          0.01219528	          0.00999999	          0.04923196	          0.00999999	          0.46484259	          0.13649287	          0.00999999	          0.00999999	          0.03030035	          0.26857415	          0.04332765	          0.29291926	          0.01337520	          0.34032638	          0.00999999	          0.04778144	          0.11956867	          0.20281901	          0.01208987	
          1.16033848	        -11.95752918	         -2.44039949	         14.42870263	          2.22018572	          0.78528932	         -0.01123399	         45.31341742	         -5.08907313	         -6.87275264	        -20.33123637	         -0.61695289	          0.19923890	         -4.67560290	         -3.05348152	          9.23701124	        -31.77550956	         -0.68220090	         37.23128940	         -6.17930585	          0.19893615	         -2.50303561	          0.15690639	          0.05927563	          0.00999999	          0.11159218	          0.20084778	          0.05907643	          0.17906886	          0.39898548	          0.06189412	          0.01026749	          0.00999999	          0.04144952	          0.00999999	          0.42493365	          0.21181710	          0.05371869	          0.00999999	          0.02551056	          0.22611876	          0.03647854	          0.24661547	          0.01443614	          0.48649544	          0.00999999	          0.04022830	          0.10066762	          0.17075799	          0.01017874	
          1.17160390	        -11.83247836	         -2.40772864	         14.50708223	          2.24585363	          0.78573054	         -0.01052734	         45.39621261	         -4.91295418	         -6.89621529	        -23.99926877	         -0.22257733	          0.16423141	         -4.59336540	         -3.26641831	          8.96196611	        -34.21139658	         -4.00388357	         35.18041696	         -6.02865501	          0.51310867	         -2.52993274	          0.19377792	          0.04990552	          0.00999999	          0.17438169	          0.26483814	          0.04973780	          0.15076219	          0.47598755	          0.05211009	          0.00999999	          0.00999999	          0.03489730	          0.01087422	          0.35776142	          0.30598114	          0.08466228	          0.00999999	          0.02147793	          0.19037459	          0.03071213	          0.20763125	          0.01215412	          0.55073173	          0.00999999	          0.03386913	          0.08475438	          0.14376509	          0.00999999	
